<svg width="99" height="24" viewBox="0 0 99 24" fill="none" xmlns="http://www.w3.org/2000/svg">
<path d="M9.10252 0H10.2107V24C4.22662 24 0.015625 20.4608 0.015625 14.5991C0.015625 6.63595 9.10252 4.64516 9.10252 0Z" fill="white"/>
<path d="M20.8814 3.97379C18.305 3.97379 17.3662 4.14846 17.3662 5.10916C17.3662 6.06986 18.4142 6.04802 18.698 6.4192C19.0255 6.85588 19.0255 11.1354 19.0255 11.441C19.0255 15.0218 18.9819 17.2271 18.698 17.6638C18.6107 17.7948 18.4142 17.8821 18.1959 17.9913C17.6937 18.2314 17.3662 18.4279 17.3662 18.9738C17.3662 19.8908 18.3924 20.1092 20.8814 20.1092C22.9775 20.1092 24.3967 20 24.3967 18.9738C24.3967 18.3188 23.8509 18.1441 23.5452 17.9913C23.1959 17.8384 23.0867 17.7293 23.043 17.6638C22.7155 17.2052 22.7155 13.0568 22.7155 11.441C22.7155 8.10043 22.8247 6.81222 23.043 6.4192C23.567 5.52401 24.3967 6.17903 24.3967 5.10916C24.3967 4.06112 23.043 3.97379 20.8814 3.97379ZM30.2773 9.49781C30.2773 9.12663 30.2554 8.71178 29.5349 8.71178C28.7707 8.71178 27.8318 8.86462 25.9104 9.69431C25.6266 9.82532 25.0371 10.0655 25.0371 10.6113C25.0371 11.0699 25.2991 11.2227 25.8449 11.3755C26.0851 11.441 26.1506 11.4192 26.2598 11.5284C26.5655 11.8341 26.6528 12.4017 26.6528 15.0218V16.048C26.6528 17.5327 26.5 17.9258 26.3471 18.0786C26.2161 18.1878 26.0633 18.1878 25.6484 18.4716C25.4519 18.6026 25.2991 18.7336 25.2991 19.1048C25.2991 19.9345 26.1506 20.131 28.465 20.131C29.5349 20.131 31.6091 20.2183 31.6091 19.1048C31.6091 18.5808 31.1288 18.3624 30.9104 18.2533C30.8231 18.2096 30.6048 18.1223 30.4956 17.9694C30.3428 17.7729 30.2773 17.2707 30.2773 15.4148C30.2773 12.5982 30.9323 11.3755 32.4607 11.3755C33.9236 11.3755 34.2947 12.4454 34.2947 15.2402V16.4629C34.2947 17.7511 34.0982 18.0131 34.0109 18.0786C33.7707 18.2751 33.7489 18.1659 33.3122 18.4716C33.1157 18.6026 32.9629 18.7336 32.9629 19.1266C32.9629 19.9345 33.7925 20.131 36.1288 20.131C37.679 20.131 39.2729 20.1092 39.2729 19.1048C39.2729 18.5808 38.8799 18.4061 38.5524 18.2533C38.465 18.2096 38.2467 18.1223 38.1375 17.9694C37.9629 17.7511 37.941 17.2489 37.941 15.6769V13.4934C37.941 12.6201 37.7882 11.31 37.3515 10.4585C36.5655 8.93012 35.1899 8.66811 34.0109 8.66811C33.2904 8.66811 32.5698 8.77728 31.893 9.1703C31.3253 9.51964 31.0196 9.91266 30.8013 10.1747C30.6266 10.393 30.5829 10.4803 30.4301 10.4803C30.3428 10.4803 30.2773 10.4585 30.2773 10.1747V9.49781ZM49.6246 10.3057C49.9303 9.82532 49.974 9.56331 49.974 9.41047C49.974 8.90829 49.5591 8.93012 48.9915 8.93012H43.2054C42.6596 8.93012 42.1137 8.58078 41.7425 8.58078C41.1094 8.58078 40.0831 9.58514 40.0831 11.4847C40.0831 12.3581 40.5417 12.4236 40.7163 12.4236C41.0875 12.4236 41.284 12.0961 41.5024 11.7904C41.6552 11.572 41.9172 11.2882 41.9827 11.2227C42.4631 10.7205 43.1399 10.655 43.9696 10.655H44.7556C44.8866 10.655 45.105 10.655 45.105 10.8079C45.105 10.8952 44.974 11.1135 44.9303 11.2009L40.4543 18.1659C39.9521 18.952 39.9303 19.3231 39.9303 19.3886C39.9303 20 40.5635 20 40.8255 20H47.3757C47.7032 20 47.6377 19.9782 48.2273 20.1747C48.3364 20.2183 48.5548 20.3057 48.7294 20.3057C49.2971 20.3057 50.236 19.476 50.236 17.6201C50.236 16.9869 50.1487 16.5065 49.6246 16.5065C49.0133 16.5065 49.0133 17.3581 48.2273 17.8821C47.8779 18.1223 47.4194 18.2751 46.4587 18.2751H45.236C45.1487 18.2751 44.7775 18.2751 44.7775 18.0349C44.7775 17.9039 44.9303 17.6201 44.9958 17.5109L49.6246 10.3057ZM55.7117 9.41047L55.7991 4.91265C55.8209 3.97379 55.5371 3.82095 54.9694 3.82095C53.834 3.82095 52.5895 4.3013 51.7598 4.62881C51.1484 4.86898 50.4497 5.15283 50.4497 5.72051C50.4497 6.17903 50.7117 6.33187 51.2576 6.48471C51.4978 6.55021 51.5633 6.52837 51.6724 6.63754C52.0873 7.05239 52.1091 8.44977 52.1091 11.8777V13.8646C52.1091 15.3275 52.131 17.8821 51.7598 18.0786L51.4104 18.2751C51.1484 18.4279 50.7336 18.559 50.7336 19.1048C50.7336 20.0218 51.9344 20.131 53.8777 20.131C54.9476 20.131 57.0218 20.2183 57.0218 19.1048C57.0218 18.3624 56.1048 18.2314 55.9082 17.9694C55.7336 17.7293 55.7117 17.0087 55.7117 16.8777L55.6899 15.393C55.6681 13.5153 55.9082 11.3755 57.8733 11.3755C58.441 11.3755 58.8995 11.5284 59.2489 12.0742C59.5982 12.5982 59.7074 13.3843 59.7074 15.393V16.4629C59.7074 16.8341 59.6637 17.9476 59.4235 18.0786L59.0524 18.2751C58.6375 18.4934 58.3755 18.6463 58.3755 19.1048C58.3755 19.9345 59.227 20.131 61.5414 20.131C62.6113 20.131 64.6855 20.2183 64.6855 19.1048C64.6855 18.3406 63.7685 18.2533 63.5502 17.9694C63.31 17.6419 63.3537 16.5502 63.3537 15.6769V13.821C63.3537 12.4454 63.2008 11.3974 62.786 10.5458C62.0873 9.12663 60.9519 8.66811 59.358 8.66811C57.917 8.66811 57.0436 9.19213 56.4541 9.91266L56.2576 10.1747C56.1703 10.2838 56.0829 10.4803 55.8864 10.4803C55.7554 10.4803 55.7117 10.393 55.7117 10.1747V9.41047ZM70.5395 9.80349C70.5395 8.71178 70.2338 8.71178 69.7971 8.71178C68.9456 8.71178 68.0722 8.84279 66.129 9.69431C65.8451 9.82532 65.2556 10.0655 65.2556 10.6113C65.2556 11.048 65.5176 11.2445 66.0635 11.3755C66.2818 11.4192 66.3692 11.4192 66.4783 11.5284C67.0023 12.0306 66.8713 14.0611 66.8713 15.3712V16.2445C66.8713 16.5939 66.915 17.8821 66.5657 18.0786L66.2163 18.2751C65.867 18.4716 65.5395 18.6026 65.5395 19.1266C65.5395 20.0218 66.7185 20.131 68.6836 20.131C70.998 20.131 71.8495 19.9345 71.8495 19.1048C71.8495 18.6463 71.5875 18.4934 71.1727 18.2751L70.8015 18.0786C70.605 17.9694 70.5176 17.4236 70.5176 15.7205L70.5395 9.80349ZM66.0416 5.69868C66.0416 6.50654 66.8277 7.35807 68.2687 7.35807C69.9281 7.35807 70.7578 6.3537 70.7578 5.54584C70.7578 4.73798 69.9936 3.82095 68.5307 3.82095C66.915 3.82095 66.0416 4.84715 66.0416 5.69868ZM74.0544 16.4192C74.0544 17.1834 74.0107 17.9476 73.7706 18.0786L73.3994 18.2751C72.9845 18.4934 72.7225 18.6463 72.7225 19.1048C72.7225 19.9127 73.3994 20.131 75.8885 20.131C78.2466 20.131 79.2509 19.9345 79.2509 19.1048C79.2509 18.5808 78.8797 18.4061 78.4431 18.2533C78.3557 18.2096 78.0937 18.1223 77.9409 17.9694C77.6789 17.7074 77.7007 16.7031 77.7007 15.4148C77.7007 13.5808 77.7007 12.8821 77.9627 12.2489C78.0501 12.0087 78.2029 11.7467 78.5304 11.7467C78.7924 11.7467 79.0544 11.9651 79.2728 12.1616C79.6003 12.4454 79.9715 12.7948 80.5828 12.7948C81.4125 12.7948 82.2422 12.0961 82.2422 10.8079C82.2422 9.56331 81.5435 8.73362 80.4518 8.73362C80.0588 8.73362 79.2509 8.82095 78.4431 9.91266L78.3121 10.0873C78.2029 10.2402 78.0282 10.4803 77.8535 10.4803C77.6352 10.4803 77.6789 10.1092 77.657 9.84715C77.6352 9.65065 77.657 9.56331 77.5697 9.27947C77.5042 9.01746 77.395 8.68995 76.8055 8.68995C75.4081 8.68995 73.6614 9.47597 73.1592 9.69431C72.8317 9.84715 72.2859 10.0873 72.2859 10.655C72.2859 11.048 72.526 11.179 72.7662 11.2664C73.3776 11.5065 73.3339 11.3755 73.5086 11.5284C73.7269 11.7249 74.0544 12.3362 74.0544 15.5895V16.4192Z" fill="white"/>
<path fill-rule="evenodd" clip-rule="evenodd" d="M88.625 0H89.7332C89.7332 2.0115 91.4371 3.52526 93.3692 5.24177C95.899 7.48921 98.82 10.0842 98.82 14.5991C98.82 20.4608 94.6091 24 88.625 24V0ZM95.6697 14.5494C95.6697 15.2378 95.1116 15.796 94.4231 15.796C93.7346 15.796 91.5005 14.5494 91.5005 14.5494C91.5005 14.5494 93.7346 13.3028 94.4231 13.3028C95.1116 13.3028 95.6697 13.8609 95.6697 14.5494ZM92.6016 10.148C92.9458 9.5518 92.7415 8.7894 92.1453 8.44516C91.549 8.10092 90.7866 8.30521 90.4424 8.90144C90.0982 9.49768 90.0607 12.0558 90.0607 12.0558C90.0607 12.0558 92.2573 10.7443 92.6016 10.148ZM92.1452 20.6536C91.549 20.9978 90.7866 20.7935 90.4424 20.1973C90.0981 19.601 90.0606 17.043 90.0606 17.043C90.0606 17.043 92.2573 18.3545 92.6015 18.9507C92.9458 19.5469 92.7415 20.3093 92.1452 20.6536Z" fill="white"/>
</svg>
